# xmcd CD database file
#
# Track frame offsets:
#	185
#	20457
#	38485
#	57622
#	86547
#	106927
#	124730
#	144060
#	161312
#	190585
#
# Disc length: 2799 seconds
#
# Revision: 0
# Processed by: cddbd v1.4PL0 Copyright (c) Steve Scherf et al.
# Submitted via: CDex 1.50beta10
#
DISCID=710aed0a
DTITLE=Theodis Ealey - If You Leave Me, I'm Going Wit' Cha
DYEAR=1993
DGENRE=Jazz
TTITLE0=House Of The Rising Sun
TTITLE1=Travelin' Mind
TTITLE2=If You Leave Me, I'm Going Wit' Cha
TTITLE3=Looking Up At The Bottom
TTITLE4=Gimme Just A Little Sign
TTITLE5=Hard Times
TTITLE6=Wicked City Woman
TTITLE7=This Time I Know
TTITLE8=Black Night
TTITLE9=Stop Doggin' Me Around
EXTD=YEAR: 1993
EXTT0=
EXTT1=
EXTT2=
EXTT3=
EXTT4=
EXTT5=
EXTT6=
EXTT7=
EXTT8=
EXTT9=
PLAYORDER=
